<?xml version="1.0" encoding="UTF-8"?>
<svg xmlns="http://www.w3.org/2000/svg" xmlns:xlink="http://www.w3.org/1999/xlink" xmlns:svgjs="http://svgjs.com/svgjs" version="1.1" width="512" height="512" x="0" y="0" viewBox="0 0 512 512" style="enable-background:new 0 0 512 512" xml:space="preserve" class="">
  <g>
    <path xmlns="http://www.w3.org/2000/svg" d="m491.171 267.541-235.171 166.8-235.171-166.8v56.83l235.171 166.8 235.171-166.8z" fill="#cc9999" data-original="#cc9999" style=""/>
    <path xmlns="http://www.w3.org/2000/svg" d="m256 434.341 235.171-166.8-235.171-158.262-235.171 158.262z" fill="#cfe29a" data-original="#cfe29a" style=""/>
    <path xmlns="http://www.w3.org/2000/svg" d="m256 384.815 160.249-113.66-160.249-107.842-147.45 99.229a10.66 10.66 0 0 0 -.215 17.539z" fill="#9caa63" data-original="#9caa63" style=""/>
    <path xmlns="http://www.w3.org/2000/svg" d="m491.171 324.371v-56.83l-235.171 166.8v56.83z" fill="#a56767" data-original="#a56767" style=""/>
    <path xmlns="http://www.w3.org/2000/svg" d="m491.171 267.541-235.171-158.262v325.062z" fill="#9caa63" data-original="#9caa63" style=""/>
    <path xmlns="http://www.w3.org/2000/svg" d="m369.193 132.133h-113.193-113.193v141.639l113.193 80.285 113.193-80.285z" fill="#ffffff" data-original="#ffffff" style=""/>
    <path xmlns="http://www.w3.org/2000/svg" d="m142.807 132.133v52.851l167.299 110.864v-108.497l-121.983-55.218z" fill="#cccccc" data-original="#cccccc" style=""/>
    <path xmlns="http://www.w3.org/2000/svg" d="m176.434 297.623v-35.123a15.714 15.714 0 0 1 24.72-12.876 36 36 0 0 1 15.367 29.5l-.233 46.767z" fill="#425968" data-original="#425968" style="" class=""/>
    <path xmlns="http://www.w3.org/2000/svg" d="m369.193 273.772v-141.639h-113.193v221.924z" fill="#cccccc" data-original="#cccccc" style=""/>
    <path xmlns="http://www.w3.org/2000/svg" d="m334.193 258.189v-35.285l-33.956 22.501v36.869z" fill="#425968" data-original="#425968" style="" class=""/>
    <path xmlns="http://www.w3.org/2000/svg" d="m256 235.955 153.201-101.521-153.201-113.605-153.201 113.605z" fill="#fc7963" data-original="#fc7963" style="" class=""/>
    <path xmlns="http://www.w3.org/2000/svg" d="m409.201 134.434-153.201-113.605v215.126z" fill="#d83030" data-original="#d83030" style="" class=""/>
  </g>
</svg>
