<?xml version="1.0" encoding="UTF-8"?>
<svg xmlns="http://www.w3.org/2000/svg" xmlns:xlink="http://www.w3.org/1999/xlink" xmlns:svgjs="http://svgjs.com/svgjs" version="1.1" width="512" height="512" x="0" y="0" viewBox="0 0 60 60" style="enable-background:new 0 0 512 512" xml:space="preserve" class="">
  <g>
    <path xmlns="http://www.w3.org/2000/svg" d="m9 57a2.006 2.006 0 0 0 2 2h38a2.006 2.006 0 0 0 2-2v-48.59a.984.984 0 0 0 -.29-.7l-6.42-6.42a.984.984 0 0 0 -.7-.29h-32.59a2.006 2.006 0 0 0 -2 2z" fill="#d4e6e7" data-original="#d4e6e7" style="" class=""/>
    <rect xmlns="http://www.w3.org/2000/svg" fill="#cd425c" height="22" rx="2" width="46" x="7" y="29" data-original="#5663af" style="" class=""/>
    <path xmlns="http://www.w3.org/2000/svg" d="m50.91 8h-4.91a2.006 2.006 0 0 1 -2-2v-4.91a1.078 1.078 0 0 1 .29.2l6.42 6.42a1.078 1.078 0 0 1 .2.29z" fill="#aac7c8" data-original="#aac7c8" style=""/>
    <g xmlns="http://www.w3.org/2000/svg" fill="#373737">
      <path d="m8 3v25.184a3 3 0 0 0 -2 2.816v18a3 3 0 0 0 2 2.816v5.184a3 3 0 0 0 3 3h38a3 3 0 0 0 3-3v-5.184a3 3 0 0 0 2-2.816v-12a1 1 0 0 0 -2 0v12a1 1 0 0 1 -1 1h-42a1 1 0 0 1 -1-1v-18a1 1 0 0 1 1-1h42a1 1 0 0 1 1 1v2a1 1 0 0 0 2 0v-2a3 3 0 0 0 -2-2.816v-19.774a1.977 1.977 0 0 0 -.583-1.41l-6.417-6.417a1.977 1.977 0 0 0 -1.41-.583h-32.59a3 3 0 0 0 -3 3zm41 55h-38a1 1 0 0 1 -1-1v-5h40v5a1 1 0 0 1 -1 1zm-38-56h32v4a3 3 0 0 0 3 3h4v19h-40v-25a1 1 0 0 1 1-1zm34 1.413 3.589 3.587h-2.589a1 1 0 0 1 -1-1z" fill="#373737" data-original="#373737" style=""/>
      <path d="m20 36a2 2 0 0 1 2 2 1 1 0 0 0 2 0 4 4 0 0 0 -8 0v4a4 4 0 0 0 8 0 1 1 0 0 0 -2 0 2 2 0 0 1 -4 0v-4a2 2 0 0 1 2-2z" fill="#373737" data-original="#373737" style=""/>
      <path d="m30 44a1 1 0 0 0 1-1v-2h2a1 1 0 0 0 0-2h-2v-2a1 1 0 0 0 -2 0v2h-2a1 1 0 0 0 0 2h2v2a1 1 0 0 0 1 1z" fill="#373737" data-original="#373737" style=""/>
      <path d="m40 44a1 1 0 0 0 1-1v-2h2a1 1 0 0 0 0-2h-2v-2a1 1 0 0 0 -2 0v2h-2a1 1 0 0 0 0 2h2v2a1 1 0 0 0 1 1z" fill="#373737" data-original="#373737" style=""/>
    </g>
  </g>
</svg>
