<?xml version="1.0" encoding="UTF-8"?>
<svg xmlns="http://www.w3.org/2000/svg" xmlns:xlink="http://www.w3.org/1999/xlink" xmlns:svgjs="http://svgjs.com/svgjs" version="1.1" width="512" height="512" x="0" y="0" viewBox="0 0 152 152" style="enable-background:new 0 0 512 512" xml:space="preserve" class="">
  <g>
    <g xmlns="http://www.w3.org/2000/svg" id="Layer_2" data-name="Layer 2">
      <g id="_76.git" data-name="76.git">
        <circle id="background" cx="76" cy="76" fill="#c33013" r="76" data-original="#f15233" style="" class=""/>
        <g id="icon" fill="#fff">
          <path d="m72 56.44a24.58 24.58 0 0 1 -9.12 2c-9-5.26-21.24.22-21.24 11.74 0 4.3 2.71 10.18 6.94 11.62v.2c-3.14 1.4-4 8.58.17 11.16v.17c-4.57 1.52-7.58 4.46-7.58 9.53 0 8.73 8.17 11.16 15.32 11.16 8.71 0 15.19-3.17 15.19-12.89 0-12-16.91-7.55-16.91-14 0-2.29 1.2-3.17 3.29-3.62 7-1.3 11.31-6.78 11.31-13.94a10.27 10.27 0 0 0 -.67-3.56 30.91 30.91 0 0 0 3.3-1.01zm-15.68 41.56c2.85 0 6.9.51 6.9 4.24s-3.26 4.46-6.31 4.46c-2.9 0-7.25-.46-7.25-4.27s3.7-4.43 6.66-4.43zm-.53-22c-3.69 0-5.24-2.2-5.24-5.73 0-8.36 10.21-8.28 10.21-.08 0 3.44-1.34 5.82-5 5.82z" fill="#ffffff" data-original="#ffffff" style="" class=""/>
          <path d="m110.83 92.71v-8.31a9.06 9.06 0 0 1 -4.9 1.41c-3.1 0-3.65-3.06-3.65-5.57v-15.45c5.31 0 8.54.17 8.54.17v-8.06h-8.54a48.11 48.11 0 0 1 .25-7h-9.53a41.64 41.64 0 0 1 .25 7h-4v8.1a13.27 13.27 0 0 1 4-.17v.17h-.05v14.83c0 7.38 1 14.54 10 14.54a16.13 16.13 0 0 0 7.62-1.66z" fill="#ffffff" data-original="#ffffff" style="" class=""/>
          <path d="m80.72 38a6.2 6.2 0 0 0 0 12.37c3.23 0 5.66-3 5.66-6.14s-2.38-6.23-5.66-6.23z" fill="#ffffff" data-original="#ffffff" style="" class=""/>
          <path d="m76.05 56.86c.3 2.51.27 33.88 0 37h9.3c-.27-3-.3-34.47 0-36.95z" fill="#ffffff" data-original="#ffffff" style="" class=""/>
        </g>
      </g>
    </g>
  </g>
</svg>
