<?xml version="1.0" encoding="UTF-8"?>
<svg xmlns="http://www.w3.org/2000/svg" xmlns:xlink="http://www.w3.org/1999/xlink" xmlns:svgjs="http://svgjs.com/svgjs" version="1.1" width="512" height="512" x="0" y="0" viewBox="0 0 60 60" style="enable-background:new 0 0 512 512" xml:space="preserve" class="">
  <g>
    <path xmlns="http://www.w3.org/2000/svg" d="m1 7v38c0 3.21 8.86 5.84 20 5.99l22-17.99v-26z" fill="#3d4b89" data-original="#3d4b89" style="" class=""/>
    <ellipse xmlns="http://www.w3.org/2000/svg" cx="22" cy="7" fill="#7684d5" rx="21" ry="6" data-original="#5663af" style="" class=""/>
    <path xmlns="http://www.w3.org/2000/svg" d="m1 32.993c0 3.314 9.4 6 21 6s21-2.686 21-6v-12.993c0 3.314-9.4 6-21 6s-21-2.686-21-6z" fill="#7684d5" data-original="#5663af" style="" class=""/>
    <rect xmlns="http://www.w3.org/2000/svg" fill="#aac7c8" height="26" rx="2" width="38" x="21" y="33" data-original="#aac7c8" style=""/>
    <g xmlns="http://www.w3.org/2000/svg" fill="#373737">
      <path d="m57 32h-5a1 1 0 0 0 0 2h5a1 1 0 0 1 1 1v22a1 1 0 0 1 -1 1h-34a1 1 0 0 1 -1-1v-22a1 1 0 0 1 1-1h25a1 1 0 0 0 0-2h-4v-25c0-4.6-11.067-7-22-7s-22 2.4-22 7v38c0 4.265 9.9 6.693 20 6.97v5.03a3 3 0 0 0 3 3h34a3 3 0 0 0 3-3v-22a3 3 0 0 0 -3-3zm-35-30c12.209 0 20 2.961 20 5s-7.791 5-20 5-20-2.961-20-5 7.791-5 20-5zm-20 8.1c3.674 2.57 11.872 3.9 20 3.9s16.326-1.33 20-3.9v9.9c0 2.039-7.791 5-20 5s-20-2.961-20-5zm0 13c3.674 2.57 11.872 3.9 20 3.9s16.326-1.33 20-3.9v8.9h-19a3 3 0 0 0 -3 3v2.965c-11.172-.305-18-3.045-18-4.965zm0 21.9v-8.884c3.443 2.407 10.817 3.664 18 3.857v9.989c-11.172-.306-18-3.044-18-4.962z" fill="#373737" data-original="#373737" style=""/>
      <path d="m44 43a4 4 0 0 0 -8 0v6a4 4 0 0 0 4 4 3.947 3.947 0 0 0 2.019-.567l.274.274a1 1 0 0 0 1.414-1.414l-.274-.274a3.947 3.947 0 0 0 .567-2.019zm-2.293 6.293a1 1 0 0 0 -1.414 1.414l.218.218a1.96 1.96 0 0 1 -.511.075 2 2 0 0 1 -2-2v-6a2 2 0 0 1 4 0v6a1.96 1.96 0 0 1 -.075.511z" fill="#373737" data-original="#373737" style=""/>
      <path d="m30 41a2 2 0 0 1 2 2 1 1 0 0 0 2 0 4 4 0 1 0 -4 4 2 2 0 1 1 -2 2 1 1 0 0 0 -2 0 4 4 0 1 0 4-4 2 2 0 0 1 0-4z" fill="#373737" data-original="#373737" style=""/>
      <path d="m47 39a1 1 0 0 0 -1 1v12a1 1 0 0 0 1 1h6a1 1 0 0 0 0-2h-5v-11a1 1 0 0 0 -1-1z" fill="#373737" data-original="#373737" style=""/>
    </g>
  </g>
</svg>
